<svg width="786" height="228" viewBox="0 0 786 228" fill="none" xmlns="http://www.w3.org/2000/svg">
<path d="M177.365 104.229L177.365 120.476L57.0913 120.476L62.2814 104.229L177.365 104.229Z" fill="#EFEFEF"/>
<path d="M19.858 175.084L0.000322463 175.084L35.8787 60.0001L55.7363 60.0001L19.858 175.084Z" fill="#EFEFEF"/>
<rect x="190" y="60" width="16.2471" height="153.445" transform="rotate(90 190 60)" fill="#EFEFEF"/>
<path d="M478.34 69.5643L465.007 84.248C456.061 74.9652 442.559 73.1087 421.799 73.1087H330.153C298.254 73.1087 282.389 85.4295 282.389 112.603V112.772C282.389 139.945 298.254 152.097 330.153 152.097H421.799C442.559 152.097 456.061 150.24 465.007 140.957L478.34 155.641C466.019 167.624 449.479 171 421.799 171H330.153C285.258 171 261.629 151.591 261.629 112.772V112.603C261.629 73.615 285.258 54.2055 330.153 54.2055H421.799C449.479 54.2055 466.019 57.5811 478.34 69.5643ZM557.41 54.2055H654.795C699.69 54.2055 723.319 73.615 723.319 112.603V112.772C723.319 151.591 699.69 171 654.795 171H557.41C512.515 171 488.886 151.591 488.886 112.772V112.603C488.886 73.615 512.515 54.2055 557.41 54.2055ZM557.41 152.097H654.795C688.044 152.097 702.559 139.27 702.559 112.772V112.603C702.559 86.1046 688.044 73.1087 654.795 73.1087H557.41C523.992 73.1087 509.646 86.1046 509.646 112.603V112.772C509.646 139.27 523.992 152.097 557.41 152.097ZM753.727 173.194C742.419 173.194 735.667 168.3 735.667 160.705C735.667 153.11 742.419 148.215 753.727 148.215C764.866 148.215 771.617 153.11 771.617 160.705C771.617 168.3 764.866 173.194 753.727 173.194Z" fill="#EFEFEF"/>
<path d="M211.531 144.665L229.925 128.584L229.925 132.358L225.805 135.947L225.805 156.546L229.925 160.135L229.925 163.909L211.531 147.828L211.531 144.665ZM223.173 138.233L214.03 146.233L223.173 154.261L223.173 138.233ZM226.336 95.6471L211.531 95.6471L211.531 92.2182L229.925 92.2182L229.925 95.6205L215.119 121.297L229.925 121.297L229.925 124.726L211.531 124.726L211.531 121.324L226.336 95.6471ZM211.531 86.6984L211.531 64.0785C211.531 57.0081 214.588 53.2868 220.728 53.2868L220.755 53.2868C226.868 53.2868 229.925 57.0081 229.925 64.0785L229.925 86.6984L211.531 86.6984ZM214.508 83.2695L226.948 83.2695L226.948 64.0785C226.948 58.8421 224.928 56.5562 220.755 56.5562L220.728 56.5562C216.528 56.5562 214.508 58.8421 214.508 64.0785L214.508 83.2695Z" fill="#EFEFEF"/>
</svg>
