<svg width="818" height="88" viewBox="0 0 818 88" fill="none" xmlns="http://www.w3.org/2000/svg">
<path d="M158.007 42.1199V20.113H166.189V42.1199C166.189 56.7066 157.627 64 140.44 64H111.076C93.8891 64 85.3273 56.7066 85.3273 42.1199V20.113H93.5086V42.1199C93.5086 52.0769 99.4067 56.8969 111.076 56.8969H140.44C152.046 56.8969 158.007 52.0769 158.007 42.1199ZM171.539 20.113H245.677V27.3429H212.699V64H204.517V27.3429H171.539V20.113ZM323.656 42.1199V20.113H331.838V42.1199C331.838 56.7066 323.276 64 306.089 64H276.725C259.538 64 250.976 56.7066 250.976 42.1199V20.113H259.158V42.1199C259.158 52.0769 265.056 56.8969 276.725 56.8969H306.089C317.695 56.8969 323.656 52.0769 323.656 42.1199ZM405.809 49.0962L417.098 64H408.155L398.135 50.3012H396.74H348.413V64H340.612V20.113H396.74C411.136 20.113 415.956 26.899 415.956 35.2705V35.3339C415.956 41.4857 413.229 46.813 405.809 49.0962ZM396.74 27.0892H348.413V43.5786H396.74C404.857 43.5786 408.092 40.471 408.092 35.3339V35.2705C408.092 30.1968 404.857 27.0892 396.74 27.0892ZM466.07 20.113L504.44 64H495.434L486.872 54.1698H437.721L429.159 64H420.154L458.523 20.113H466.07ZM481.418 47.8912L462.328 26.0745L443.175 47.8912H481.418ZM518.654 38.822H581.187V20.113H589.368V64H581.187V45.6715H518.654V64H510.473V20.113H518.654V38.822Z" fill="#EFEFEF"/>
<path d="M74.584 38.9053L74.584 45.7374L24.0073 45.7374L26.1898 38.9053L74.584 38.9053Z" fill="#EFEFEF"/>
<path d="M8.35021 68.7012L-0.000163723 68.7012L15.0871 20.307L23.4375 20.307L8.35021 68.7012Z" fill="#EFEFEF"/>
<rect x="79.8975" y="20.3066" width="6.83212" height="64.5255" transform="rotate(90 79.8975 20.3066)" fill="#EFEFEF"/>
<path d="M701.49 27.8846L696.48 33.4021C693.119 29.914 688.045 29.2164 680.244 29.2164H645.807C633.821 29.2164 627.86 33.8461 627.86 44.0567V44.1201C627.86 54.3307 633.821 58.897 645.807 58.897H680.244C688.045 58.897 693.119 58.1993 696.48 54.7112L701.49 60.2288C696.861 64.7316 690.645 66 680.244 66H645.807C628.938 66 620.059 58.7067 620.059 44.1201V44.0567C620.059 29.4067 628.938 22.1134 645.807 22.1134H680.244C690.645 22.1134 696.861 23.3818 701.49 27.8846ZM731.201 22.1134H767.795C784.664 22.1134 793.543 29.4067 793.543 44.0567V44.1201C793.543 58.7067 784.664 66 767.795 66H731.201C714.332 66 705.453 58.7067 705.453 44.1201V44.0567C705.453 29.4067 714.332 22.1134 731.201 22.1134ZM731.201 58.897H767.795C780.289 58.897 785.743 54.077 785.743 44.1201V44.0567C785.743 34.0997 780.289 29.2164 767.795 29.2164H731.201C718.644 29.2164 713.254 34.0997 713.254 44.0567V44.1201C713.254 54.077 718.644 58.897 731.201 58.897ZM804.969 66.8245C800.72 66.8245 798.183 64.9853 798.183 62.1314C798.183 59.2775 800.72 57.4383 804.969 57.4383C809.155 57.4383 811.692 59.2775 811.692 62.1314C811.692 64.9853 809.155 66.8245 804.969 66.8245Z" fill="#EFEFEF"/>
<path d="M601.088 56.3593L608 50.3166L608 51.7349L606.452 53.0833L606.452 60.8239L608 62.1722L608 63.5905L601.088 57.5478L601.088 56.3593ZM605.463 53.9422L602.027 56.9486L605.463 59.9649L605.463 53.9422ZM606.652 37.9404L601.088 37.9404L601.088 36.6519L608 36.6519L608 37.9304L602.437 47.5786L608 47.5786L608 48.8671L601.088 48.8671L601.088 47.5886L606.652 37.9404ZM601.088 34.5778L601.088 26.0781C601.088 23.4214 602.237 22.0231 604.544 22.0231L604.554 22.0231C606.851 22.0231 608 23.4214 608 26.0781L608 34.5778L601.088 34.5778ZM602.207 33.2894L606.881 33.2894L606.881 26.0781C606.881 24.1105 606.122 23.2516 604.554 23.2516L604.544 23.2516C602.966 23.2516 602.207 24.1105 602.207 26.0781L602.207 33.2894Z" fill="#EFEFEF"/>
</svg>
