<svg width="1221" height="228" viewBox="0 0 1221 228" fill="none" xmlns="http://www.w3.org/2000/svg">
<path d="M177.365 104.229L177.365 120.476L57.0913 120.476L62.2814 104.229L177.365 104.229Z" fill="#1B1B1B"/>
<path d="M19.858 175.084L0.000322463 175.084L35.8787 60.0001L55.7363 60.0001L19.858 175.084Z" fill="#1B1B1B"/>
<rect x="190" y="60" width="16.2471" height="153.445" transform="rotate(90 190 60)" fill="#1B1B1B"/>
<path d="M443.403 110.746C461.631 112.265 474.289 119.523 474.289 139.438C474.289 160.536 458.931 171 430.07 171H268.38V54.2055H422.981C451.842 54.2055 467.37 63.8259 467.37 84.7544C467.37 100.282 458.931 108.046 443.403 110.746ZM422.981 70.7458H289.14V103.658H422.812C438.34 103.658 446.441 99.1005 446.441 87.1172C446.441 75.6403 438.171 70.7458 422.981 70.7458ZM289.14 119.86V154.46H430.07C445.597 154.46 453.361 149.396 453.361 137.244C453.361 125.092 445.597 119.86 430.07 119.86H289.14ZM493.495 54.2055H515.267V151.253H671.724V171H493.495V54.2055ZM748.571 54.2055H845.956C890.851 54.2055 914.48 73.615 914.48 112.603V112.772C914.48 151.591 890.851 171 845.956 171H748.571C703.676 171 680.047 151.591 680.047 112.772V112.603C680.047 73.615 703.676 54.2055 748.571 54.2055ZM748.571 152.097H845.956C879.205 152.097 893.72 139.27 893.72 112.772V112.603C893.72 86.1046 879.205 73.1087 845.956 73.1087H748.571C715.153 73.1087 700.807 86.1046 700.807 112.603V112.772C700.807 139.27 715.153 152.097 748.571 152.097ZM1149.01 69.5643L1135.68 84.248C1126.74 74.9652 1113.23 73.1087 1090.95 73.1087H996.101C964.034 73.1087 948.337 85.4295 948.337 112.603V112.772C948.337 139.945 964.034 152.097 996.101 152.097H1087.75C1109.69 152.097 1129.44 149.903 1132.98 133.194V126.78H1072.39V110.409H1151.88V171H1139.39L1137.71 152.603C1129.6 167.793 1110.87 171 1087.75 171H996.101C951.206 171 927.577 151.591 927.577 112.772V112.603C927.577 73.615 951.206 54.2055 996.101 54.2055H1090.95C1120.32 54.2055 1136.69 57.5811 1149.01 69.5643ZM1188.3 173.194C1176.99 173.194 1170.24 168.3 1170.24 160.705C1170.24 153.11 1176.99 148.215 1188.3 148.215C1199.44 148.215 1206.19 153.11 1206.19 160.705C1206.19 168.3 1199.44 173.194 1188.3 173.194Z" fill="#1B1B1B"/>
<path d="M211.531 144.665L229.925 128.584L229.925 132.358L225.805 135.947L225.805 156.546L229.925 160.135L229.925 163.909L211.531 147.828L211.531 144.665ZM223.173 138.233L214.03 146.233L223.173 154.261L223.173 138.233ZM226.336 95.6471L211.531 95.6471L211.531 92.2182L229.925 92.2182L229.925 95.6205L215.119 121.297L229.925 121.297L229.925 124.726L211.531 124.726L211.531 121.324L226.336 95.6471ZM211.531 86.6984L211.531 64.0785C211.531 57.0081 214.588 53.2868 220.728 53.2868L220.755 53.2868C226.868 53.2868 229.925 57.0081 229.925 64.0785L229.925 86.6984L211.531 86.6984ZM214.508 83.2695L226.948 83.2695L226.948 64.0785C226.948 58.8421 224.928 56.5562 220.755 56.5562L220.728 56.5562C216.528 56.5562 214.508 58.8421 214.508 64.0785L214.508 83.2695Z" fill="#1B1B1B"/>
</svg>
