<svg width="449" height="280" viewBox="0 0 449 280" fill="none" xmlns="http://www.w3.org/2000/svg">
<path d="M134.072 37.708C133.931 38.977 127.445 39.4 123.356 39.4C122.087 39.4 120.959 39.259 120.395 39.259C118.421 38.836 117.152 37.426 117.152 35.875V35.593C117.434 33.901 119.126 32.068 123.074 30.94C136.046 27.133 170.45 20.083 194.279 20.083C200.765 20.083 206.546 20.647 210.917 21.916C211.622 22.198 211.904 22.621 211.904 23.326V23.749C211.763 25.159 210.071 26.992 208.52 26.992C208.238 26.992 207.815 26.992 207.533 26.851C204.149 25.159 198.65 24.595 192.869 24.595C187.652 24.595 182.153 25.159 177.782 25.582C175.244 25.864 174.257 27.838 171.296 32.491C166.784 39.4 161.003 49.552 160.862 50.68V50.821H161.144C163.682 50.821 179.051 47.578 189.344 47.578C191.036 47.578 192.728 47.719 194.138 47.86C196.535 48.283 197.381 49.27 197.381 50.257V50.68C197.24 51.949 195.689 53.218 194.138 53.218C193.292 53.218 192.587 52.936 192.023 52.231C191.036 51.949 189.767 51.808 188.357 51.808C180.179 51.808 165.233 55.192 158.747 56.179C157.196 56.461 156.209 57.166 155.222 58.858C152.966 63.088 139.994 86.212 139.43 88.75C137.456 99.184 131.816 110.887 127.022 120.334C126.74 120.898 126.035 121.18 125.189 121.18C123.638 121.18 121.946 120.334 121.946 118.924V118.783C122.228 117.796 122.51 116.527 123.074 115.258C126.881 106.516 130.688 97.774 134.636 89.173C135.341 87.481 135.905 85.93 136.046 84.661C136.187 84.097 136.187 83.533 136.187 83.11C136.187 73.24 121.1 73.099 120.959 67.318V66.472C122.51 56.884 152.543 55.615 155.363 50.821C158.465 45.745 165.938 32.914 167.912 28.825C168.194 28.12 168.476 27.556 168.476 27.274V27.133C168.476 26.851 168.335 26.851 168.053 26.851H167.207C153.671 28.684 139.994 30.799 127.022 34.747L126.599 35.029C126.599 35.17 126.599 35.311 126.74 35.311H129.56C131.816 35.311 134.072 35.593 134.072 37.567V37.708ZM126.176 66.754C126.176 68.446 134.636 68.587 138.443 76.624C138.866 77.329 139.007 78.457 139.571 78.457C139.853 78.457 140.135 78.175 140.699 77.188C141.968 74.65 143.378 72.112 144.788 69.574C146.48 66.331 148.313 63.088 150.005 59.986C150.146 59.704 150.287 59.422 150.287 59.281V59.14C150.287 58.717 149.864 58.576 149.3 58.576H148.595C142.532 59.563 133.226 62.242 127.586 65.485C126.74 66.049 126.317 66.472 126.176 66.754ZM205.525 47.014C204.256 48.988 199.462 55.051 195.655 55.051H195.232C194.809 55.051 194.386 54.769 194.386 54.346V53.782C194.386 52.09 195.937 49.129 200.308 45.322C200.59 44.899 201.295 44.758 201.859 44.758C203.269 44.758 205.243 45.463 205.666 46.591C205.666 46.732 205.666 46.873 205.525 47.014ZM176.197 88.75C176.197 81.7 182.965 69.997 187.477 65.062C187.9 64.78 188.323 64.498 188.887 64.498C190.156 64.498 191.425 65.767 191.425 66.895C191.425 67.6 191.002 68.023 190.156 68.869C185.362 73.945 181.273 82.687 181.273 88.186C181.273 90.16 182.119 91.57 184.234 91.57C184.798 91.57 185.503 91.429 186.349 91.147C196.642 88.186 212.857 77.47 221.881 69.574C222.163 69.292 222.445 69.292 222.727 69.292C223.573 69.292 224.278 69.997 224.278 70.702C224.278 70.984 224.278 71.266 224.137 71.407C217.228 79.162 195.655 92.98 186.631 95.659C185.362 95.941 184.234 96.223 183.247 96.223C178.876 96.223 176.197 93.262 176.197 88.75ZM257.621 94.672C256.07 95.659 254.942 96.082 254.096 96.082C252.686 96.082 251.981 94.954 251.981 93.121C251.981 85.225 263.966 63.793 279.758 56.32C282.296 55.051 284.27 54.628 285.68 54.628C289.064 54.628 290.333 56.743 291.461 56.743C291.884 56.743 302.036 39.541 304.01 33.901C304.151 33.619 303.023 32.491 303.869 30.94C307.817 24.736 315.008 14.02 317.828 10.777C320.93 7.67499 322.904 10.777 321.353 12.892C313.034 25.3 273.413 101.722 273.413 117.373C273.413 118.783 273.836 119.77 274.541 120.052C275.387 120.334 275.669 120.757 275.669 121.18C275.669 122.449 273.413 124.141 271.439 124.141C270.029 124.141 268.76 123.154 268.76 120.052C268.76 106.798 280.745 84.097 286.526 70.42C287.795 67.6 284.552 70.279 283.142 71.689C277.784 76.201 261.146 92.416 257.621 94.672ZM257.057 89.596C258.608 89.596 283.988 65.485 286.385 62.806C288.218 60.268 287.654 59.422 285.539 59.422C281.168 59.422 269.888 65.062 261.146 80.572C258.185 85.789 256.211 89.596 257.057 89.596ZM347.324 69.856C347.606 69.574 347.888 69.574 348.17 69.574C348.875 69.574 349.58 70.138 349.58 70.984C349.58 71.266 349.439 71.548 349.016 71.971C339.146 81.559 316.586 96.223 306.575 96.223C302.627 96.223 299.807 93.262 299.807 89.314C299.807 80.431 315.881 57.166 326.597 57.166C328.571 57.166 329.699 58.294 329.699 60.268C329.699 68.869 313.625 79.867 306.716 83.674C305.165 84.52 305.165 85.507 304.883 86.917C304.46 90.019 305.447 91.852 308.549 91.852C318.278 91.852 342.953 73.663 347.324 69.856ZM307.844 79.021C308.549 79.021 310.805 77.47 312.074 76.483L319.265 69.856C322.508 66.331 324.623 63.229 323.918 62.524C323.213 61.819 320.534 63.934 317.009 67.177C313.766 70.279 308.972 76.483 307.844 79.021Z" fill="white"/>
<path d="M24.8651 153.706C19.8097 172.905 16.1059 205.855 18.0367 225.501C18.3425 227.171 18.8324 227.831 19.3937 227.776C22.2002 227.5 27.2735 214.25 27.9638 212.624C41.8927 181.36 57.7561 151.04 75.9888 121.763C77.4658 119.492 86.5672 105.422 89.5188 102.298C89.7719 101.99 90.1791 101.808 90.6 101.767L90.8807 101.739C92.1436 101.615 93.5031 102.473 93.641 103.876C93.6961 104.438 93.611 105.013 93.1049 105.629C62.5919 145.465 49.5877 177.487 29.7484 219.249C28.7913 221.043 23.9872 232.708 19.3565 233.163L19.2162 233.177C15.4274 233.549 13.8132 225.774 13.5649 223.248L13.3305 220.863C12.9029 216.513 13.0229 211.967 13.1405 208.839C13.9382 185.241 18.1182 152.811 26.1114 130.348C26.7879 128.582 27.9681 127.616 28.9503 127.519C29.9464 127.563 30.8573 128.182 31.1493 129.712C31.2045 130.273 31.1469 131.129 30.949 131.998C29.2944 139.67 28.1532 142.474 27.9433 150.429C27.8833 152.701 27.8119 153.417 26.4087 153.555L24.8651 153.706ZM93.2613 149.251C92.1914 151.34 88.0135 157.843 84.2247 158.215L83.8037 158.256C83.3828 158.298 82.9342 158.058 82.8928 157.637L82.8377 157.076C82.6722 155.392 83.9261 152.294 87.9038 148.077C88.1431 147.629 88.8309 147.42 89.3922 147.364C90.7954 147.227 92.8289 147.735 93.3602 148.816C93.374 148.957 93.3878 149.097 93.2613 149.251ZM68.1562 193.656C67.4666 186.639 73.0575 174.33 77.0651 168.978C77.4585 168.656 77.8519 168.334 78.4132 168.279C79.6761 168.155 81.0631 169.293 81.1735 170.416C81.2424 171.118 80.8628 171.58 80.1036 172.505C75.8291 178.025 72.6148 187.125 73.1527 192.598C73.3457 194.562 74.3256 195.883 76.4304 195.676C76.9917 195.621 77.6796 195.411 78.4939 195.048C88.448 191.095 103.537 178.844 111.745 170.103C111.999 169.795 112.279 169.767 112.56 169.74C113.402 169.657 114.172 170.29 114.241 170.991C114.269 171.272 114.296 171.553 114.17 171.707C108.053 180.1 87.9346 195.962 79.2159 199.511C77.9806 199.916 76.8856 200.307 75.9033 200.403C71.5533 200.831 68.5975 198.146 68.1562 193.656ZM107.699 195.72C106.252 196.854 105.171 197.385 104.329 197.468C102.926 197.606 102.114 196.552 101.935 194.728C101.162 186.87 110.994 164.368 125.979 155.386C128.381 153.875 130.304 153.261 131.707 153.123C135.075 152.792 136.545 154.773 137.667 154.663C138.088 154.621 146.509 136.509 147.922 130.703C148.035 130.408 146.802 129.396 147.492 127.77C150.814 121.209 156.923 109.841 159.412 106.338C162.196 102.947 164.463 105.842 163.127 108.098C156.061 121.26 124.105 201.191 125.636 216.767C125.774 218.17 126.292 219.111 127.021 219.323C127.89 219.521 128.212 219.914 128.254 220.335C128.378 221.598 126.298 223.503 124.334 223.696C122.93 223.834 121.571 222.976 121.267 219.888C119.971 206.698 129.678 182.934 134.094 168.757C135.081 165.826 132.115 168.809 130.85 170.351C125.959 175.365 110.987 193.13 107.699 195.72ZM106.642 190.723C108.185 190.571 131.085 164.094 133.209 161.193C134.785 158.488 134.141 157.701 132.036 157.908C127.686 158.336 117.011 165.052 109.828 181.343C107.392 186.824 105.8 190.806 106.642 190.723ZM172.281 153.386C174.347 151.341 176.718 150.966 179.03 152.864C183.233 156.702 186.738 157.774 189.545 157.498C192.913 157.167 195.245 154.954 196.384 153.567C197.523 152.18 200.718 154.416 199.073 156.42C196.22 159.109 192.836 160.716 189.328 161.061C185.399 161.447 181.305 160.15 177.171 157.014C175.322 155.496 172.918 158.424 171.708 160.526C164.339 170.601 154.073 193.004 153.426 193.634C152.906 194.11 152.373 194.446 151.811 194.501C149.566 194.722 149.417 191.761 150.052 189.574C155.239 167.387 156.012 166.603 163.485 144.616C164.796 140.662 166.23 139.388 167.212 139.291C168.335 139.181 169.174 140.515 169.257 141.357C169.409 142.901 166.848 147.119 166.284 148.591C163.141 156.976 160.023 167.058 157.778 175.922C157.467 177.086 158.24 176.301 158.465 175.712L162.998 167.049C165.151 163.012 169.021 156.257 172.281 153.386ZM191.84 183.058C188.495 186.504 185.686 188.197 183.581 188.404C181.617 188.597 180.37 187.444 180.149 185.199C179.956 183.234 180.382 180.359 181.875 176.812C185.708 166.801 194.614 152.183 204.276 146.699C205.611 145.86 206.986 145.441 208.109 145.331C212.74 144.876 213.827 148.736 214.186 152.384C214.115 153.1 214.156 153.521 214.197 153.942C214.418 156.187 215.373 155.81 215.524 157.353C215.58 157.915 215.508 158.63 215.338 159.78C214.247 165.98 212.025 169.315 212.783 177.033L212.838 177.594C213.031 179.559 214.11 180.444 215.654 180.293C221.828 179.686 236.361 164.656 240.638 157.719C240.877 157.27 241.284 157.088 241.705 157.047C242.407 156.978 243.163 157.47 243.246 158.312C243.287 158.733 243.315 159.014 243.062 159.322C239.275 166.92 225.639 182.428 217.33 184.378C216.783 184.574 216.222 184.629 215.66 184.684C212.433 185.001 209.615 183.72 208.654 179.705C208.585 179.004 208.375 178.316 208.32 177.755C207.824 172.703 209.432 167.444 209.267 165.761C209.239 165.48 209.085 165.353 208.945 165.367C208.664 165.395 208.13 165.731 207.498 166.501L191.84 183.058ZM184.686 182.344C184.714 182.625 184.868 182.752 185.148 182.724C185.85 182.655 187.817 181.045 191.176 177.74C197.64 171.437 203.474 164.488 209.463 157.666C210.082 156.755 210.252 155.605 210.142 154.482C210.004 153.079 209.532 149.725 207.708 149.904C207.147 149.959 206.473 150.309 205.813 150.799C197.694 156.13 191.533 165.52 187.477 174.703C185.618 178.853 184.603 181.502 184.686 182.344ZM257.289 149.423C252.097 149.933 245.8 156.503 242.492 163.204C240.379 167.662 239.461 171.294 239.696 173.679C239.93 176.065 241.345 177.484 244.165 177.349L244.867 177.28C246.27 177.142 247.926 176.696 249.836 175.941C263.735 170.325 282.213 153.632 285.275 151.631C285.542 151.463 285.809 151.296 286.089 151.268C287.085 151.312 287.644 152.674 287.713 153.375C287.741 153.656 287.768 153.937 287.628 153.95C286.869 154.875 263.332 176.315 248.186 180.779C246.263 181.393 244.579 181.558 243.176 181.696C237.662 181.813 235.38 178.779 234.966 174.569C234.456 169.377 236.754 162.492 240.341 157.181C244.871 149.935 251.922 145.275 256.834 144.792L257.535 144.724C257.816 144.696 258.096 144.668 258.391 144.781C260.958 144.954 261.91 145.994 262.034 147.257C262.076 147.678 261.991 148.253 261.751 148.701C261.386 149.304 260.879 149.92 260.038 150.003L259.757 150.031C259.196 150.086 258.466 149.874 257.71 149.382L257.289 149.423ZM322.125 149.71C322.378 149.402 322.659 149.374 322.94 149.346C323.641 149.277 324.398 149.77 324.481 150.612C324.508 150.892 324.396 151.187 324.016 151.649C315.131 162.157 294.114 178.957 284.151 179.936C280.221 180.322 277.125 177.651 276.739 173.722C275.87 164.882 289.592 140.156 300.256 139.108C302.221 138.915 303.454 139.927 303.647 141.892C304.488 150.451 289.567 162.969 283.063 167.433C281.603 168.427 281.699 169.409 281.556 170.84C281.439 173.969 282.6 175.696 285.688 175.393C295.37 174.441 318.147 153.926 322.125 149.71ZM283.731 162.692C284.433 162.623 286.526 160.859 287.692 159.753L294.201 152.454C297.083 148.629 298.885 145.335 298.114 144.702C297.344 144.07 294.884 146.437 291.693 150.009C288.769 153.413 284.605 160.056 283.731 162.692ZM338.725 118.609C337.527 122.269 335.711 125.422 334.092 129.124C333.514 130.456 332.587 131.113 331.605 131.21C330.482 131.32 329.544 130.421 329.42 129.158C329.254 127.474 333.83 117.815 334.983 116.568C335.362 116.106 335.77 115.924 336.331 115.869C337.594 115.745 338.799 116.477 338.923 117.739C338.951 118.02 338.838 118.315 338.725 118.609ZM318.398 166.936C317.75 160.341 319.632 150.663 324.491 139.56C325.421 137.485 326.615 136.659 327.597 136.563C329.562 136.369 331.045 138.491 330.088 140.285C325.77 146.801 322.015 160.488 322.677 167.224C322.925 169.75 323.932 171.351 325.616 171.185C326.879 171.061 328.607 169.9 330.926 167.547C345.865 152.335 352.864 137.054 357.631 130.777C359.276 128.774 363.329 129.65 363.619 132.597C363.193 135.473 361.707 143.411 360.093 151.504C359.214 156.974 357.969 163.047 358.234 164.296C358.5 164.128 365.403 147.865 369.737 140.072C371.286 137.086 372.606 136.106 374.01 135.968C375.132 135.858 376.156 136.182 377.628 136.746C381.904 138.451 385.649 139.074 389.157 138.73C393.367 138.316 397.298 136.513 402.116 133.631C404.391 132.274 405.324 136.007 404.384 136.525C399.369 140.276 394.314 142.19 389.263 142.686C385.193 143.086 381.027 142.504 377.073 141.192C375.334 140.797 375.376 141.218 374.377 142.591C367.583 152.751 361.256 169.099 357.299 177.847C356.933 178.45 356.259 178.8 355.557 178.869C353.452 179.075 351.785 177.964 351.578 175.859C353.41 162.787 357.274 142.997 357.012 140.331C348.559 152.354 341.804 164.352 331.884 172.978C329.538 175.05 327.502 175.959 325.678 176.138C321.749 176.524 319.005 173.11 318.398 166.936ZM395.963 167.388C392.358 166.751 390.539 164.096 390.167 160.307C389.215 150.625 397.136 137.52 405.296 132.61C407.557 131.112 409.655 135.157 407.633 136.205C397.267 143.175 393.77 153.719 394.335 159.473C394.583 161.999 395.885 163.712 397.569 163.547C404.305 162.885 411.182 144.924 411.518 136.815C410.89 134.752 409.899 131.874 409.637 129.208C409.361 126.401 409.955 123.793 412.426 122.983C415.513 122.68 416.083 125.599 416.318 127.985C416.538 130.23 416.2 131.113 416.421 133.358C417.055 139.813 423.475 143.149 430.491 142.46L431.614 142.349C434.841 142.032 438.225 140.424 441.513 137.834C442.495 137.738 443.321 138.932 443.417 139.914C443.472 140.475 443.247 141.064 442.84 141.246C439.384 143.569 435.172 145.4 431.103 145.8L429.419 145.965C425.209 146.379 421.043 145.797 417.554 143.448C413.897 140.832 415.143 141.985 413.719 146.233C411.687 152.95 405.618 166.156 398.096 167.462C397.394 167.531 396.678 167.46 395.963 167.388Z" fill="white"/>
</svg>
